<svg xmlns="http://www.w3.org/2000/svg" width="75" height="89" viewBox="0 0 75 89" fill="none">
<path d="M63.152 85.3773L54.4729 82.4526L54.1562 83.2126L58.0395 84.8793L57.9992 85.1096L54.7377 84.5339L54.7233 84.6692L67.7664 88.4258L67.9478 87.9537L63.6989 85.8408L63.152 85.3773Z" fill="#020202"/>
<path d="M43.5662 81.9807L44.7925 81.6928C44.6831 81.5661 44.6255 81.4395 44.5536 81.4309C43.143 81.2178 41.6749 80.0549 40.1953 81.759L52.2683 85.6423C52.3432 85.4235 52.4151 85.2076 52.4871 84.9917L43.5662 81.9807Z" fill="#020202"/>
<path d="M12.5483 17.8946C12.1395 16.7057 11.417 15.4995 11.463 14.3251C11.4947 13.4269 12.2748 12.1834 13.7919 12.8454C13.8264 12.8598 13.9818 12.6986 14.0164 12.6008C14.7044 10.6116 16.4632 11.0463 17.8882 11.0204C20.7006 10.9715 22.5832 12.975 22.9949 16.2019C23.1848 17.6988 20.8906 20.4191 18.9907 20.8452C16.3769 21.4209 14.572 19.9816 13.2104 18.6833C12.7699 18.1652 12.603 18.05 12.5483 17.8946ZM19.1173 15.8565C19.5779 16.0292 20.8215 15.5024 20.8186 15.3124C20.8013 14.1984 20.4876 13.1132 18.7143 12.9174C19.0598 14.0171 17.3095 15.1685 19.1173 15.8565Z" fill="#020202"/>
<path d="M18.7113 12.9155C19.0567 14.0152 17.3065 15.1666 19.1143 15.8546C19.5749 16.0273 20.8185 15.5005 20.8156 15.3106C20.8041 14.1965 20.4903 13.1113 18.7113 12.9155Z" fill="#020202"/>
<path d="M30.0501 31.7191C31.6276 30.7288 34.0802 30.9476 35.2777 30.2251C38.3895 28.3338 41.4063 26.2468 44.6736 24.6779C46.0582 24.013 47.4284 23.3451 48.7986 22.6312C51.5046 21.2236 54.3602 20.0865 57.1985 18.9552C59.4266 18.0657 61.7381 17.3835 63.9806 16.5285C64.5563 16.3155 64.9881 15.7887 65.227 15.6045C63.2379 14.0903 61.5769 12.556 59.6684 11.4391C57.6052 10.2193 55.4163 9.22618 53.1396 8.47696C45.2205 5.9121 37.215 3.53147 28.7605 4.24249C25.8099 4.49293 22.9197 5.51197 20.0123 6.21436C19.288 6.43766 18.576 6.69902 17.8792 6.99735C18.0433 5.14926 18.1901 3.50844 18.3369 1.87049L17.8475 1.72656C16.0225 3.41632 13.8376 4.83549 13.8175 8.37333C11.67 6.0877 9.97735 4.24825 8.22714 2.46349C7.88746 2.12094 7.31749 2.01443 6.85691 1.78126C6.77343 2.2879 6.49708 2.86075 6.64389 3.28966C7.21962 4.99381 7.94792 6.65479 8.61576 8.3244C6.22361 7.95881 3.88904 7.56732 1.54295 7.27657C1.05358 7.21612 0.515276 7.53277 0 7.6767C0.342558 8.07396 0.61315 8.6065 1.04207 8.84543C2.87 9.86447 4.74399 10.7943 6.79934 11.8651L0.817533 15.2072C0.86647 15.4663 0.915406 15.7254 0.961465 15.9844C1.70773 16.069 2.4588 16.1036 3.20968 16.0881C4.07327 16.019 4.93686 15.8002 6.23513 15.5613L5.3226 17.4813C9.0418 17.0467 9.81327 19.7497 11.2756 21.6813C14.8969 26.4598 18.3312 31.3938 22.6434 35.6052L30.0501 31.7191ZM12.5509 17.9016C12.1421 16.7127 11.4196 15.5066 11.4656 14.3292C11.4973 13.434 12.2774 12.1904 13.7944 12.8525C13.829 12.8669 13.9844 12.7057 14.019 12.6078C14.707 10.6187 16.4658 11.0533 17.8907 11.0274C20.7032 10.9785 22.5858 12.982 22.9974 16.209C23.1874 17.7059 20.8931 20.4262 18.9932 20.8522C16.3794 21.428 14.5745 19.9886 13.2129 18.6904C12.7725 18.1636 12.6055 18.0484 12.5509 17.893V17.9016Z" fill="#020202"/>
<path d="M54.9101 67.3599C51.4557 65.1866 49.4407 61.8416 47.4256 58.557C43.2861 51.775 39.423 44.826 35.4102 37.9662C35.0791 37.3904 34.4516 37.0162 34.0083 36.5067C33.7415 36.1808 33.4926 35.8406 33.2627 35.4877L24.6844 31.708V31.7253C24.665 32.0754 24.5811 32.419 24.4368 32.7386C22.7845 37.2638 21.1206 41.7861 19.405 46.461L18.2046 46.3459C18.5385 47.0224 18.9703 47.5463 19.0077 48.0961C19.0336 48.4905 18.5327 48.9223 18.4493 49.0547C17.3324 51.8124 16.322 54.3111 15.1647 57.1753L17.2777 57.3739C16.7394 60.2526 16.3853 63.5975 14.2263 66.3985C13.4779 67.3657 14.045 68.7647 14.9431 69.2397L22.2894 61.1104C23.3084 64.6598 24.2065 67.8032 25.1047 70.9438C25.1219 71.0014 25.1191 71.0618 25.1306 71.1194C26.3598 76.2866 26.5699 75.2618 22.108 77.1646C21.3826 77.4754 20.7723 78.0598 20.0383 78.5665L17.7354 77.9389C17.6663 78.1145 17.5972 78.2872 17.5252 78.4628L23.7978 81.4077L13.1468 79.6143C13.3051 80.38 13.3829 80.7485 13.4692 81.1544C9.86229 81.2465 6.22658 79.0242 2.70312 81.2033C6.88003 79.5653 10.6856 81.5343 14.589 82.3547C15.3895 82.5325 16.2239 82.4796 16.9956 82.2022L14.8452 80.7197C18.2996 80.7197 21.5812 81.1659 24.4455 83.0226C25.8848 83.9553 26.6994 83.7221 27.1024 81.8711C30.3985 82.4066 33.1677 84.8793 36.8121 84.3611L34.2674 82.7577L34.3912 82.4699L44.2908 86.6036L44.5786 85.9559L33.6801 80.9154L34.5754 79.8417C34.1217 79.6222 33.6841 79.3712 33.2656 79.0904C32.1545 78.2268 30.3236 77.4668 30.1538 76.4391C29.8918 74.8386 30.7007 73.0308 31.1872 71.3497C31.429 70.5207 31.9587 69.7751 32.4078 68.8942C35.7787 70.6617 38.4097 73.6785 42.1059 74.6976L42.5463 74.1017C42.0685 73.5922 41.6827 72.9099 41.107 72.6019C39.6677 71.842 39.6994 70.9294 40.5083 69.8557L44.3311 69.4584L43.0386 67.5701C45.6293 69.375 48.3295 69.2656 50.9433 69.6398C52.2646 69.8298 53.5341 70.3623 54.8323 70.751C55.6528 70.9985 56.4674 71.2605 57.6649 71.6376C57.213 69.5678 56.2314 68.1918 54.9101 67.3599ZM29.5119 68.0997C29.201 68.8194 29.3046 69.7089 29.0916 70.4861C28.844 71.3785 28.4496 72.2306 28.1215 73.0999L27.2262 72.9819C27.0132 71.0993 26.7109 69.2224 26.6246 67.3369C26.5699 66.1423 27.7271 65.9408 28.4957 66.1163C29.2643 66.2919 30.0329 66.9022 29.5119 68.0969V68.0997Z" fill="#020202"/>
<path d="M69.3786 83.6479L60.6995 80.7261L60.3828 81.486L64.2661 83.1528L64.2258 83.3831L60.9643 82.8073L60.9499 82.9426L73.9844 86.7108L74.1657 86.2387L69.9169 84.1257L69.3786 83.6479Z" fill="#2278B8"/>
<path d="M49.7771 80.2543L51.0034 79.9664C50.894 79.8398 50.8365 79.7131 50.7645 79.7016C49.354 79.4915 47.8859 78.3285 46.4062 80.0326L58.4793 83.9131C58.5541 83.6972 58.6261 83.4813 58.698 83.2625L49.7771 80.2543Z" fill="#2278B8"/>
<path d="M18.767 16.1662C18.3583 14.9773 17.6357 13.7711 17.6818 12.5938C17.7135 11.6985 18.4936 10.4549 20.0106 11.1141C20.0451 11.1314 20.2006 10.9702 20.2351 10.8695C20.9231 8.88032 22.682 9.31788 24.1069 9.29197C26.9193 9.24303 28.802 11.2437 29.2136 14.4735C29.4036 15.9704 27.1093 18.6878 25.2094 19.1168C22.5985 19.6925 20.7907 18.2532 19.4291 16.9549C18.9973 16.4367 18.8217 16.3216 18.767 16.1662ZM25.3303 14.1252C25.7909 14.3008 27.0345 13.774 27.0316 13.584C27.0143 12.47 26.7006 11.3847 24.9273 11.189C25.2785 12.2886 23.5283 13.4401 25.3303 14.1252Z" fill="white"/>
<path d="M24.9379 11.1899C25.2833 12.2896 23.5331 13.441 25.3409 14.1262C25.8014 14.3017 27.045 13.775 27.0421 13.585C27.0249 12.4709 26.7111 11.3857 24.9379 11.1899Z" fill="#1D1D1B"/>
<path d="M36.268 29.9925C37.8455 29.0023 40.2981 29.221 41.4956 28.4985C44.6074 26.6072 47.6242 24.5173 50.8915 22.9514C52.2761 22.2864 53.6463 21.6186 55.0166 20.9047C57.7225 19.4941 60.5781 18.3599 63.4164 17.2286C65.6445 16.3391 67.956 15.6569 70.1985 14.8019C70.7742 14.5889 71.206 14.0621 71.4449 13.8779C69.4558 12.3637 67.7948 10.8294 65.8863 9.71252C63.8222 8.49257 61.6323 7.49942 59.3547 6.7504C51.4355 4.18554 43.4301 1.8049 34.9755 2.51593C32.0249 2.76349 29.1348 3.78541 26.2273 4.48779C25.503 4.7111 24.791 4.97246 24.0943 5.27078C24.2612 3.4227 24.4052 1.78188 24.552 0.143932L24.0597 0C22.2347 1.68976 20.0498 3.10605 20.0296 6.64677C17.885 4.36113 16.1924 2.51881 14.4422 0.736931C14.1025 0.391495 13.5268 0.287864 13.072 0.0546941C12.9885 0.561334 12.7121 1.13418 12.8589 1.56022C13.4347 3.26725 14.163 4.92823 14.8308 6.59783C12.4387 6.23225 10.1041 5.84075 7.76951 5.55001C7.28014 5.48956 6.74184 5.80621 6.22656 5.95014C6.56912 6.34739 6.83971 6.87994 7.26863 7.11887C9.09656 8.13503 10.9706 9.06771 13.0259 10.1386L7.03258 13.4807C7.08152 13.7397 7.13045 13.9988 7.17651 14.2579C7.92289 14.341 8.67387 14.3756 9.42473 14.3615C10.2883 14.2924 11.1519 14.0737 12.4502 13.8347C12.1019 14.5717 11.8744 15.0524 11.5376 15.7548C15.254 15.3172 16.0283 18.0231 17.4907 19.9547C21.112 24.7304 24.5462 29.6672 28.8584 33.8787L36.268 29.9925ZM18.7688 16.1751C18.36 14.9862 17.6375 13.78 17.6835 12.6027C17.7152 11.7074 18.4953 10.4638 20.0124 11.1231C20.0469 11.1403 20.2023 10.9791 20.2369 10.8784C20.9249 8.88923 22.6837 9.32678 24.1087 9.30087C26.9211 9.25194 28.8037 11.2526 29.2154 14.4824C29.4053 15.9793 27.1111 18.6967 25.2112 19.1228C22.6002 19.6985 20.7925 18.2592 19.4309 16.9638C18.9962 16.437 18.8206 16.3219 18.7659 16.1664L18.7688 16.1751Z" fill="#145389"/>
<path d="M61.1259 65.6334C57.6716 63.46 55.6565 60.115 53.6415 56.8305C49.502 50.0484 45.6389 43.0994 41.6261 36.2396C41.295 35.6639 40.6675 35.2868 40.2242 34.7801C39.9573 34.4542 39.7084 34.1141 39.4786 33.7611L30.9003 29.9814V29.9987C30.8809 30.3488 30.797 30.6924 30.6527 31.012C29.0032 35.5343 27.3451 40.0538 25.618 44.7316L24.4205 44.6193C24.7544 45.2958 25.1862 45.8197 25.2236 46.3695C25.2495 46.7639 24.7486 47.1957 24.6651 47.3281C23.5482 50.0858 22.5378 52.5845 21.3806 55.4487L23.4964 55.6445C22.9552 58.5231 22.6012 61.871 20.4422 64.6719C19.6937 65.6391 20.2608 67.0353 21.159 67.5131L28.4966 59.3838C29.5156 62.9332 30.4138 66.0767 31.3119 69.2173C31.3235 69.2753 31.3322 69.3339 31.3378 69.3929C32.567 74.5571 32.7627 73.5352 28.3152 75.438C27.5898 75.7489 26.9796 76.3332 26.2455 76.8399L23.9426 76.2123C23.8735 76.3851 23.8044 76.5607 23.7325 76.7334L30.0165 79.6782L19.3656 77.882C19.5239 78.6505 19.6016 79.019 19.688 79.4249C16.081 79.517 12.4453 77.2947 8.92188 79.4738C13.0988 77.8359 16.9043 79.8049 20.8078 80.6253C21.6082 80.803 22.4427 80.7501 23.2143 80.4727L21.064 78.9874C24.5183 78.9874 27.8 79.4364 30.6642 81.2903C32.1035 82.2201 32.9182 81.9898 33.3212 80.1388C36.6172 80.6742 39.3865 83.147 43.0308 82.6288L40.4861 81.0254C40.5264 80.9304 40.5696 80.8383 40.6099 80.7376L50.5095 84.8713L50.783 84.2236L39.8989 79.1917L40.7941 78.118C40.3411 77.8974 39.9035 77.6464 39.4844 77.3667C38.3732 76.5031 36.5424 75.7431 36.3725 74.7155C36.1106 73.1149 36.9195 71.3071 37.406 69.626C37.6478 68.797 38.1775 68.0514 38.6265 67.1705C41.9974 68.938 44.6285 71.9548 48.3246 72.971L48.7651 72.378C48.2872 71.8685 47.9015 71.1862 47.3258 70.8782C45.8864 70.1183 45.9181 69.2057 46.727 68.132L50.5613 67.7319L49.2688 65.8464C51.8596 67.6513 54.5598 67.5419 57.1736 67.9161C58.4949 68.1032 59.7643 68.6386 61.0626 69.0273C61.883 69.2719 62.6977 69.5368 63.8952 69.9139C63.4289 67.8413 62.4472 66.4653 61.1259 65.6334ZM35.7277 66.3732C35.4168 67.0928 35.5234 67.9823 35.3075 68.7567C35.0599 69.6519 34.6655 70.504 34.3374 71.3734L33.4421 71.2553C33.2291 69.3727 32.9268 67.4958 32.8405 65.6103C32.7858 64.4157 33.943 64.2142 34.7116 64.3898C35.4802 64.5654 36.2488 65.1756 35.7277 66.3703V66.3732Z" fill="#145389"/>
</svg>